<svg width="282" height="94" viewBox="0 0 282 94" fill="none" xmlns="http://www.w3.org/2000/svg">
<path d="M280.656 39.7556L279.003 48.6376C278.79 49.8683 277.67 50.7779 276.444 50.7779H270.526C270.259 50.7779 270.046 50.9384 269.993 51.2059L266.101 72.876C265.834 74.5347 265.994 75.7118 266.634 76.3539C267.7 77.4775 270.046 77.0495 271.592 77.0495C274.098 77.0495 274.685 78.4406 274.365 80.1528L272.872 87.5367C272.605 89.0349 271.059 90.533 269.566 90.8541C263.861 92.1917 252.931 91.8172 249.626 89.5699C246.693 87.5902 244.774 84.5938 246.693 74.0531L250.692 51.1524C250.745 50.9384 250.532 50.7244 250.319 50.7244H247.813C246.16 50.7244 244.934 49.2262 245.254 47.621L246.907 38.739C247.12 37.5083 248.24 36.5987 249.466 36.5987H253.145C253.411 36.5987 253.625 36.4382 253.678 36.1707L255.864 26.1115C256.13 24.9344 257.303 24.1853 258.423 24.0247C261.302 23.5967 268.34 23.5432 271.699 24.0247C273.458 24.2923 274.578 25.5229 274.258 27.1281L272.659 36.1172C272.605 36.3312 272.818 36.5452 273.032 36.5452H278.044C279.696 36.6522 280.923 38.1504 280.656 39.7556ZM206.279 91.9777C215.077 91.9777 222.861 89.6234 228.459 84.9684C234.057 80.2598 237.683 73.304 239.336 63.9939C239.762 61.5862 239.922 59.3924 239.922 57.3592C239.922 50.2963 237.683 44.8387 233.204 41.0397C228.726 37.2408 222.968 35.3681 215.237 35.3681C206.439 35.3681 199.562 37.7224 193.91 42.3774C188.312 47.0324 184.686 54.0418 183.033 63.3519C182.607 65.7596 182.447 67.9534 182.447 69.9866C182.447 77.0495 184.686 82.5071 189.165 86.306C193.643 90.0515 198.495 91.9777 206.279 91.9777ZM208.679 77.0495C204.68 77.0495 202.654 74.6417 202.654 69.8261C202.654 68.1139 202.867 66.0807 203.347 63.6729C204.253 58.9108 205.533 55.5399 207.132 53.4532C208.785 51.3665 210.918 50.3498 213.69 50.3498C217.689 50.3498 219.715 52.7576 219.715 57.5732C219.715 59.2854 219.502 61.3186 219.022 63.7264C218.116 68.4885 216.836 71.8594 215.237 73.9461C213.584 75.9793 211.398 77.0495 208.679 77.0495ZM155.895 58.0547C154.616 61.3186 150.244 70.8962 150.244 70.8962H149.817C149.817 70.8962 148.857 60.7301 148.538 58.0547C148.218 55.3794 146.138 38.846 146.138 38.846C145.978 37.5618 145.179 36.7057 143.526 36.5452C140.753 36.2777 133.929 36.2242 130.143 36.5452C128.597 36.7057 127.318 37.9899 127.584 39.5951L136.541 88.5533C136.755 89.784 137.661 90.5866 139.101 90.6936C144.006 91.1216 151.203 91.1751 156.055 90.6936C157.122 90.5866 158.028 90.105 158.454 89.1419L184.58 40.1836C185.379 38.4714 184.206 36.7057 182.18 36.4917C178.288 36.0637 171.57 36.0637 167.678 36.4917C166.559 36.5987 165.652 37.1338 165.226 38.1504C165.226 38.2574 157.175 54.7909 155.895 58.0547ZM95.3276 90.7471C98.3666 91.1751 106.311 91.1216 109.776 90.7471C111.216 90.5866 112.122 89.8375 112.336 88.6068L121.399 39.6486C121.719 38.0434 120.6 36.6522 118.84 36.5452C115.321 36.3312 108.017 36.3312 104.391 36.5452C103.112 36.6522 102.045 37.4548 101.832 38.6855L92.7684 87.6437C92.4485 89.3024 93.1949 90.4795 95.3276 90.7471ZM113.402 31.0876C110.363 31.0876 107.59 29.9104 105.511 27.7702C103.432 25.6299 102.365 22.7941 102.472 19.7442C102.685 13.5375 107.91 8.45442 114.095 8.45442C117.134 8.45442 119.907 9.63156 121.986 11.7718C124.065 13.9121 125.132 16.7479 125.025 19.7977C124.812 26.058 119.587 31.0876 113.402 31.0876ZM49.0488 1.87314C26.4426 3.63885 11.354 19.4767 7.24859 25.844C2.07688 33.8164 1.06387 39.5951 3.0899 46.9254C4.0496 50.3498 8.10166 53.9883 13.4333 53.9883C19.618 53.9883 24.8431 48.9052 25.0563 42.6984C25.1096 40.6117 24.6298 38.5785 23.6168 36.8127C21.5908 32.5322 17.752 33.5489 23.0836 27.9307C27.2423 23.5967 33.587 18.3531 47.6092 17.6575C66.59 16.6944 71.2285 32.3182 70.1088 40.5582C68.456 52.7576 61.6315 58.1082 55.0203 57.5732C52.4077 57.3592 51.0215 56.5031 51.5547 54.0953L55.1269 37.7224C56.5131 30.713 54.5937 28.0377 49.6353 27.1281C47.6626 26.8071 42.0643 26.8606 39.1319 27.0746C36.5727 27.2351 35.1865 28.4123 34.6533 30.713C33.587 34.94 23.7234 77.4775 21.3775 87.2692C20.7377 89.8375 21.3775 90.426 24.15 90.5865C29.6416 90.9611 36.4128 91.0146 40.5715 90.7471C41.9044 90.6401 43.2373 90.2655 43.5572 88.7138C44.9434 82.5606 46.5962 75.3908 48.249 68.3279C48.3557 67.8464 48.8888 67.5789 49.3154 67.7929C59.8721 72.769 87.9699 71.8058 93.1949 43.5545C97.5669 20.5468 85.7306 -0.962688 49.0488 1.87314Z" fill="#DB0032"/>
</svg>
